<?xml version="1.0" standalone="no"?>
<!DOCTYPE svg PUBLIC "-//W3C//DTD SVG 20010904//EN"
 "http://www.w3.org/TR/2001/REC-SVG-20010904/DTD/svg10.dtd">
<svg version="1.0" xmlns="http://www.w3.org/2000/svg"
 width="1156.000000pt" height="646.000000pt" viewBox="0 0 1156.000000 646.000000"
 preserveAspectRatio="xMidYMid meet">

<g transform="translate(0.000000,646.000000) scale(0.100000,-0.100000)"
fill="#000000" stroke="none">
<path d="M6855 5526 c-154 -36 -316 -122 -539 -288 l-119 -89 -39 16 c-24 9
-70 15 -123 15 -47 0 -85 3 -85 6 0 3 13 24 29 47 71 105 88 169 51 202 -47
43 -179 -13 -386 -164 l-119 -86 -205 -5 -205 -5 0 -30 c0 -30 1 -30 60 -33
72 -3 85 -16 85 -83 l0 -47 -122 -83 c-144 -97 -209 -129 -260 -129 -32 0 -39
4 -44 25 -20 81 92 297 198 379 35 26 71 59 81 72 16 22 16 25 2 30 -22 9 -72
-29 -130 -99 -55 -65 -98 -97 -166 -121 -24 -8 -35 -15 -24 -15 11 0 40 8 64
19 24 11 45 19 47 17 1 -1 -11 -25 -28 -51 -38 -62 -78 -167 -78 -206 0 -40
32 -70 73 -70 45 0 172 64 287 144 l95 66 3 -211 c3 -251 4 -249 -90 -249 -58
0 -58 0 -58 -30 l0 -30 105 0 c58 0 105 -4 105 -9 0 -4 -15 -41 -34 -82 -44
-95 -69 -184 -62 -215 8 -29 47 -57 70 -48 9 3 49 56 90 118 41 61 94 139 120
174 l46 62 229 0 229 0 6 -32 c24 -128 166 -175 351 -118 247 77 531 353 693
675 67 131 95 227 100 335 3 86 1 99 -20 140 -44 82 -154 116 -283 86z m177
-16 c46 -13 94 -67 109 -122 59 -220 -220 -716 -536 -951 -166 -123 -337 -179
-454 -147 -63 17 -91 49 -91 105 l0 45 78 0 c132 0 216 59 241 170 16 73 -2
133 -58 189 -25 25 -54 51 -65 56 -17 10 -17 12 4 53 32 62 25 138 -18 191
l-32 40 119 90 c301 226 547 324 703 281z m-1074 -122 c-55 -79 -152 -200
-162 -204 -7 -3 -65 -3 -130 -2 l-119 3 99 70 c112 80 273 165 310 165 l25 0
-23 -32z m-893 -168 c-21 -22 -41 -37 -44 -35 -6 7 60 75 73 75 6 0 -7 -18
-29 -40z m354 -113 c-2 -2 -23 -18 -46 -36 l-43 -33 0 36 0 36 47 0 c25 0 44
-1 42 -3z m319 -4 c-1 -5 -39 -59 -83 -120 l-80 -113 -122 0 -123 0 0 74 0 75
58 45 57 45 148 1 c82 0 147 -3 145 -7z m394 1 c6 -5 -18 -29 -183 -182 l-56
-52 -78 0 c-63 0 -76 3 -72 14 3 8 39 62 79 120 l73 106 116 0 c64 0 118 -3
121 -6z m57 -43 c26 -36 28 -102 5 -137 -29 -43 -64 -54 -171 -54 l-98 1 113
109 c62 61 117 110 122 110 5 0 18 -13 29 -29z m-668 -278 c-84 -152 -162
-278 -173 -278 -10 0 -14 32 -16 148 l-3 147 101 0 c93 0 100 -1 91 -17z m232
-71 c-43 -49 -101 -116 -128 -150 -43 -53 -55 -62 -83 -62 -39 0 -44 -12 66
173 l75 127 74 0 74 0 -78 -88z m497 66 c88 -60 91 -178 8 -242 -26 -19 -51
-27 -99 -32 l-64 -5 24 20 c13 12 29 21 36 21 28 0 65 41 65 72 0 68 -73 92
-122 41 -27 -28 -78 -122 -78 -142 0 -8 -64 -11 -211 -11 -200 0 -211 1 -198
18 34 44 110 134 173 205 l69 77 182 0 c172 0 184 -1 215 -22z m-730 -344 c0
-6 -118 -175 -133 -189 -7 -7 -8 -7 -5 0 3 6 22 46 43 90 20 44 42 86 47 93
10 12 48 17 48 6z"/>
<path d="M4810 5197 c-23 -18 -60 -68 -60 -81 0 -6 6 -2 12 9 19 36 51 65 70
65 10 0 18 5 18 10 0 14 -22 12 -40 -3z"/>
<path d="M4741 5089 c-1 -9 7 -23 17 -30 15 -12 16 -12 6 1 -6 8 -14 22 -17
30 -5 13 -6 12 -6 -1z"/>
<path d="M3760 4913 c-22 -8 -40 -34 -40 -59 0 -13 18 -44 41 -70 29 -33 39
-54 37 -73 -4 -33 -37 -42 -45 -12 -6 23 -33 29 -33 8 0 -7 7 -23 16 -35 35
-50 106 -1 90 61 -3 15 -22 45 -42 67 -24 26 -34 47 -32 62 4 30 34 36 43 9 3
-12 13 -21 20 -21 11 0 12 6 6 22 -10 27 -41 47 -61 41z"/>
<path d="M7477 4912 c-16 -3 -37 -39 -37 -63 0 -20 29 -8 32 14 4 27 41 31 46
4 6 -29 -5 -58 -43 -117 -19 -30 -35 -65 -35 -77 0 -21 4 -23 55 -23 42 0 55
3 55 15 0 11 -11 15 -40 15 -22 0 -40 3 -40 8 0 4 18 36 40 72 22 36 40 77 40
91 0 42 -33 70 -73 61z"/>
<path d="M7625 4895 c-26 -25 -27 -30 -23 -120 3 -106 17 -132 61 -121 32 8
47 51 46 130 -1 78 -9 105 -36 123 -20 14 -24 13 -48 -12z m49 -21 c9 -24 7
-167 -3 -183 -5 -8 -16 -11 -25 -8 -13 5 -16 23 -16 91 0 92 5 116 25 116 7 0
16 -7 19 -16z"/>
<path d="M7782 4904 c-12 -8 -22 -26 -22 -40 0 -31 16 -31 24 1 9 34 43 34 52
0 4 -16 -2 -38 -20 -67 -42 -71 -67 -128 -61 -138 3 -6 28 -10 56 -10 36 0 49
4 49 14 0 10 -13 16 -40 18 l-40 3 40 65 c47 77 53 129 18 154 -12 9 -25 16
-28 16 -3 0 -16 -7 -28 -16z"/>
<path d="M7943 4909 c-14 -5 -23 -17 -23 -29 0 -24 9 -26 25 -3 18 25 45 9 45
-27 0 -23 -6 -33 -25 -40 -31 -12 -32 -22 -2 -35 17 -8 22 -18 22 -50 0 -33
-4 -41 -21 -43 -15 -2 -23 3 -27 17 -6 26 -27 28 -27 3 0 -23 30 -52 53 -52
46 0 75 82 43 125 -11 16 -11 22 3 46 29 52 -13 108 -66 88z"/>
<path d="M3590 4779 l0 -130 47 3 c60 4 72 28 13 28 l-41 0 3 48 c3 43 5 47
31 50 15 2 27 7 27 12 0 5 -12 10 -27 12 -25 3 -28 7 -28 43 0 38 2 40 33 43
48 5 39 22 -13 22 l-45 0 0 -131z"/>
<path d="M3860 4900 c0 -5 9 -10 20 -10 19 0 20 -7 20 -120 0 -100 3 -120 15
-120 13 0 15 20 15 120 0 113 1 120 20 120 11 0 20 5 20 10 0 6 -25 10 -55 10
-30 0 -55 -4 -55 -10z"/>
<path d="M3990 4670 c0 -11 7 -20 15 -20 8 0 15 9 15 20 0 11 -7 20 -15 20 -8
0 -15 -9 -15 -20z"/>
<path d="M280 2976 l0 -556 273 0 c317 1 450 11 538 40 132 45 207 133 216
254 10 121 -39 209 -144 261 -34 17 -62 32 -62 35 0 3 23 19 52 35 84 49 124
130 114 233 -11 106 -81 183 -205 224 -63 21 -86 22 -424 26 l-358 3 0 -555z
m681 346 c107 -52 84 -188 -38 -221 -21 -6 -122 -11 -225 -11 l-188 0 0 131 0
131 203 -4 c185 -3 206 -5 248 -26z m24 -437 c110 -55 114 -194 7 -247 -44
-21 -62 -23 -264 -26 l-218 -4 0 152 0 152 218 -4 c193 -3 221 -5 257 -23z"/>
<path d="M1621 2981 c-138 -302 -251 -552 -251 -555 0 -3 56 -6 126 -6 l125 0
15 38 c9 20 34 79 56 130 l41 92 277 0 278 0 57 -130 57 -130 124 0 c67 0 125
3 127 8 2 4 -79 190 -182 413 -102 223 -215 470 -251 547 l-64 142 -142 0
-141 0 -252 -549z m484 123 c50 -112 91 -211 93 -219 3 -13 -25 -15 -187 -15
-105 0 -191 3 -191 8 0 11 184 431 190 432 3 0 46 -93 95 -206z"/>
<path d="M3478 3143 c-3 -378 -4 -389 -25 -429 -47 -87 -126 -121 -260 -111
-117 9 -179 55 -213 160 l-12 37 -124 0 -123 0 5 -32 c23 -134 88 -238 184
-296 83 -49 141 -64 285 -69 210 -9 333 31 428 137 55 61 85 136 98 245 5 44
9 230 9 413 l0 332 -124 0 -125 0 -3 -387z"/>
<path d="M4253 3392 c-34 -75 -143 -315 -243 -532 -100 -217 -185 -405 -187
-418 l-5 -23 122 3 c97 2 125 6 131 18 5 8 30 65 57 125 l48 110 279 0 279 0
56 -125 56 -125 127 -3 c71 -1 127 1 127 6 0 5 -112 254 -249 553 l-249 544
-143 2 -144 3 -62 -138z m302 -303 l94 -214 -191 -3 c-105 -1 -192 -1 -194 1
-2 2 32 86 77 187 44 102 87 200 95 219 8 19 17 32 20 29 3 -3 47 -102 99
-219z"/>
<path d="M5580 3525 c0 -2 77 -184 171 -402 94 -219 200 -467 236 -550 l65
-153 142 0 143 0 71 168 c39 92 146 340 237 551 91 211 165 385 165 387 0 2
-60 4 -133 4 l-133 0 -170 -425 c-93 -234 -171 -425 -175 -425 -3 0 -81 191
-175 425 l-169 424 -137 1 c-76 0 -138 -2 -138 -5z"/>
<path d="M6926 2986 c-137 -300 -248 -548 -247 -553 0 -4 56 -8 123 -8 l122 0
52 118 c28 65 56 123 61 128 5 5 123 8 283 7 l274 -3 50 -115 c28 -63 55 -121
59 -127 9 -14 257 -19 257 -6 0 4 -54 124 -119 268 -66 143 -178 388 -250 545
l-130 285 -143 3 -143 2 -249 -544z m487 104 l95 -215 -190 -3 c-105 -1 -193
-1 -195 2 -2 2 30 82 73 177 42 96 85 194 95 218 11 24 21 42 23 40 3 -2 47
-101 99 -219z"/>
<path d="M8122 2978 l3 -553 443 -3 c349 -2 444 0 447 10 3 7 11 55 18 106
l14 92 -339 0 -338 0 0 450 0 450 -125 0 -125 0 2 -552z"/>
<path d="M9222 2978 l3 -553 445 0 445 0 11 65 c6 36 14 82 17 103 l6 37 -340
0 -339 0 0 450 0 450 -125 0 -125 0 2 -552z"/>
<path d="M10322 2978 l3 -553 465 0 465 0 12 70 c6 39 12 85 12 103 l1 32
-355 0 -355 0 0 130 0 130 325 0 325 0 0 105 0 105 -325 0 -325 0 0 115 0 115
340 0 340 0 0 100 0 100 -465 0 -465 0 2 -552z"/>
<path d="M7144 1770 c-21 -8 -39 -38 -29 -48 3 -3 16 1 30 8 21 11 32 11 59 2
50 -18 84 -15 96 9 15 26 5 37 -20 21 -23 -14 -52 -16 -65 -3 -17 15 -49 20
-71 11z"/>
<path d="M2696 1686 c-141 -52 -155 -251 -22 -315 87 -43 205 -15 254 59 20
30 23 45 20 100 -4 76 -28 118 -83 144 -50 24 -123 29 -169 12z m157 -51 c35
-22 51 -59 50 -115 -1 -90 -55 -136 -150 -128 -76 7 -115 45 -120 120 -5 64
20 111 70 134 38 17 115 12 150 -11z"/>
<path d="M3711 1688 c-53 -15 -78 -36 -102 -84 -28 -58 -23 -136 11 -184 73
-102 261 -90 318 20 76 149 -59 297 -227 248z m122 -42 c49 -20 69 -50 75
-107 9 -90 -44 -149 -132 -149 -88 0 -136 48 -136 138 0 100 97 159 193 118z"/>
<path d="M8581 1688 c-84 -24 -126 -86 -119 -178 5 -69 35 -115 92 -141 96
-43 212 -11 254 71 75 149 -59 297 -227 248z m122 -42 c48 -20 69 -50 75 -104
9 -94 -44 -152 -138 -152 -84 0 -130 48 -130 138 0 100 97 159 193 118z"/>
<path d="M9058 1689 c-44 -13 -66 -35 -74 -77 -10 -50 33 -86 121 -101 91 -16
123 -29 130 -52 16 -49 -40 -77 -133 -66 -35 4 -52 12 -68 32 -14 17 -29 26
-42 23 -19 -3 -20 -6 -9 -27 23 -46 62 -65 140 -69 84 -4 134 16 155 61 30 62
-26 121 -126 133 -86 10 -122 28 -122 59 0 55 133 74 184 26 12 -11 32 -21 44
-21 20 0 20 2 10 26 -7 14 -25 32 -41 41 -38 19 -122 25 -169 12z"/>
<path d="M2150 1670 c0 -18 7 -20 70 -20 l70 0 0 -145 0 -145 25 0 25 0 0 145
0 145 65 0 c58 0 65 2 65 20 0 19 -7 20 -160 20 -153 0 -160 -1 -160 -20z"/>
<path d="M3117 1683 c-4 -3 -7 -78 -7 -166 l0 -159 114 3 c97 4 119 7 142 25
115 85 91 260 -40 293 -49 12 -198 15 -209 4z m207 -47 c47 -20 66 -51 66
-111 0 -89 -45 -125 -160 -125 l-70 0 0 125 0 125 65 0 c36 0 81 -6 99 -14z"/>
<path d="M4350 1525 c0 -158 1 -165 20 -165 18 0 20 7 20 60 l0 60 75 0 c120
0 167 30 167 105 0 79 -46 105 -187 105 l-95 0 0 -165z m226 100 c21 -28 17
-53 -11 -81 -23 -23 -31 -25 -97 -22 l-73 3 -3 49 c-5 77 -3 79 89 74 66 -3
83 -7 95 -23z"/>
<path d="M4789 1534 c-41 -86 -75 -160 -77 -165 -2 -5 7 -9 21 -9 20 0 28 9
41 45 l18 45 93 0 94 0 20 -45 c16 -36 25 -45 45 -45 l25 0 -33 73 c-18 39
-54 114 -80 165 -68 135 -73 133 -167 -64z m138 26 l31 -70 -69 0 c-38 0 -69
2 -69 5 0 10 65 135 70 135 3 0 19 -32 37 -70z"/>
<path d="M5220 1525 c0 -158 1 -165 20 -165 18 0 20 7 20 65 l0 66 67 -3 67
-3 36 -62 c29 -53 39 -63 62 -63 l27 0 -39 66 -39 67 30 27 c22 21 29 37 29
65 0 81 -42 105 -185 105 l-95 0 0 -165z m204 115 c21 -8 26 -16 26 -44 0 -51
-27 -66 -117 -66 l-73 0 0 60 0 60 69 0 c38 0 81 -4 95 -10z"/>
<path d="M5760 1626 c-16 -36 -52 -110 -80 -165 l-50 -101 25 0 c20 0 30 9 47
45 l22 45 91 0 91 0 22 -45 c17 -36 27 -45 47 -45 25 0 24 1 -39 128 -35 70
-71 144 -81 165 -13 28 -23 37 -41 37 -20 0 -29 -11 -54 -64z m119 -128 c1 -5
-30 -8 -69 -8 l-70 0 38 76 37 75 32 -68 c18 -37 32 -71 32 -75z"/>
<path d="M6340 1681 c0 -5 32 -79 71 -165 66 -143 74 -156 98 -156 24 0 32 13
93 148 89 196 85 182 56 182 -22 0 -31 -15 -83 -135 -32 -74 -61 -135 -65
-135 -4 0 -34 61 -66 135 -51 116 -62 135 -81 135 -13 0 -23 -4 -23 -9z"/>
<path d="M6830 1525 c0 -158 1 -165 20 -165 19 0 20 7 20 165 0 158 -1 165
-20 165 -19 0 -20 -7 -20 -165z"/>
<path d="M7057 1683 c-4 -3 -7 -78 -7 -165 l0 -158 25 0 24 0 3 129 3 129 108
-129 c85 -102 113 -129 132 -129 l25 0 -2 163 c-3 159 -3 162 -25 165 -22 3
-22 1 -25 -129 l-3 -132 -108 131 c-100 122 -129 146 -150 125z"/>
<path d="M7550 1525 l0 -165 135 0 c128 0 135 1 135 20 0 19 -7 20 -116 20
l-115 0 3 53 3 52 103 3 c94 2 102 4 102 22 0 19 -7 20 -106 20 l-105 0 3 48
3 47 108 3 c99 2 107 4 107 22 0 19 -7 20 -130 20 l-130 0 0 -165z"/>
<path d="M7987 1683 c-4 -3 -7 -78 -7 -166 l0 -159 113 3 c107 4 116 6 151 33
108 82 79 250 -49 285 -44 12 -198 15 -208 4z m213 -51 c43 -21 60 -53 60
-112 0 -84 -48 -120 -160 -120 l-70 0 0 125 0 125 68 0 c44 0 79 -6 102 -18z"/>
<path d="M5250 849 l0 -130 48 3 c56 4 63 22 10 26 -38 3 -38 4 -38 47 0 39 3
44 25 47 14 2 26 8 26 13 0 6 -12 11 -26 13 -22 3 -25 8 -25 43 0 38 1 39 35
39 24 0 35 5 35 15 0 11 -12 15 -45 15 l-45 0 0 -131z"/>
<path d="M5390 850 c0 -80 4 -130 10 -130 6 0 10 39 10 98 1 108 6 106 40 -15
36 -125 50 -112 50 47 0 107 -3 130 -15 130 -11 0 -15 -17 -17 -72 l-3 -73
-19 73 c-15 56 -24 72 -38 72 -16 0 -18 -11 -18 -130z"/>
<path d="M5562 968 c-25 -25 -14 -75 28 -123 43 -50 49 -75 24 -96 -14 -11
-18 -10 -30 6 -8 10 -14 22 -14 27 0 4 -4 8 -10 8 -15 0 -12 -46 4 -59 24 -21
69 -9 84 21 16 33 3 70 -39 114 -22 23 -30 39 -27 60 4 37 25 42 39 10 14 -29
29 -34 29 -10 0 46 -57 73 -88 42z"/>
<path d="M5815 968 c-15 -49 -56 -250 -52 -260 7 -19 12 -2 45 145 16 70 25
127 20 127 -5 0 -10 -6 -13 -12z"/>
<path d="M5950 850 l0 -130 33 0 c50 0 77 24 77 70 0 21 -6 45 -14 52 -11 12
-11 17 0 33 34 47 0 105 -61 105 l-35 0 0 -130z m78 72 c4 -28 -14 -52 -39
-52 -16 0 -19 8 -19 41 0 38 1 40 28 37 19 -2 28 -9 30 -26z m-3 -127 c0 -36
-3 -40 -27 -43 -27 -3 -28 -2 -28 43 0 45 1 46 28 43 24 -3 27 -7 27 -43z"/>
<path d="M6123 953 c-25 -38 -25 -168 0 -206 22 -33 60 -36 81 -5 20 29 21 68
1 68 -9 0 -15 -9 -15 -24 0 -13 -6 -29 -14 -35 -26 -21 -41 16 -41 99 0 83 15
120 41 99 8 -6 14 -20 14 -30 0 -11 7 -19 15 -19 19 0 19 30 -1 58 -21 31 -59
28 -81 -5z"/>
</g>
</svg>
